<svg xmlns="http://www.w3.org/2000/svg" xmlns:xlink="http://www.w3.org/1999/xlink" xmlns:lucid="lucid" width="1160" height="400"><g transform="translate(-320 -260)" lucid:page-tab-id="0_0"><path d="M340 286a6 6 0 0 1 6-6h148a6 6 0 0 1 6 6v148a6 6 0 0 1-6 6H346a6 6 0 0 1-6-6z" stroke="#d7987d" stroke-width="2" fill="#f9ded4"/><use xlink:href="#a" transform="matrix(1,0,0,1,345,285) translate(55.27777777777778 78.71527777777777)"/><path d="M1300 286a6 6 0 0 1 6-6h148a6 6 0 0 1 6 6v148a6 6 0 0 1-6 6h-148a6 6 0 0 1-6-6z" stroke="#d7987d" stroke-width="2" fill="#f9ded4"/><use xlink:href="#b" transform="matrix(1,0,0,1,1305,285) translate(36.75925925925926 78.71527777777777)"/><path d="M980 286a6 6 0 0 1 6-6h148a6 6 0 0 1 6 6v148a6 6 0 0 1-6 6H986a6 6 0 0 1-6-6z" stroke="#d7987d" stroke-width="2" fill="#f9ded4"/><use xlink:href="#c" transform="matrix(1,0,0,1,992,292) translate(29.790123456790127 59.111111111111114)"/><use xlink:href="#d" transform="matrix(1,0,0,1,992,292) translate(-2.8950617283950635 85.77777777777777)"/><path d="M660 286a6 6 0 0 1 6-6h148a6 6 0 0 1 6 6v148a6 6 0 0 1-6 6H666a6 6 0 0 1-6-6z" stroke="#d7987d" stroke-width="2" fill="#f9ded4"/><use xlink:href="#e" transform="matrix(1,0,0,1,665,285) translate(45.40123456790124 64.65277777777777)"/><use xlink:href="#f" transform="matrix(1,0,0,1,665,285) translate(42.96296296296296 91.31944444444446)"/><path d="M1298 360h-138.5" stroke="#92c3be" stroke-width="2" stroke-linejoin="round" fill="none"/><path d="M1299 361h-1.03v-2h1.03z" stroke="#92c3be" stroke-width=".05" fill="#92c3be"/><path d="M1144.24 360l14.26-4.63v9.26z" stroke="#92c3be" stroke-width="2" fill="#92c3be"/><path d="M502 360h138.5" stroke="#92c3be" stroke-width="2" stroke-linejoin="round" fill="none"/><path d="M502.03 361H501v-2h1.03z" stroke="#92c3be" stroke-width=".05" fill="#92c3be"/><path d="M655.76 360l-14.26 4.63v-9.26z" stroke="#92c3be" stroke-width="2" fill="#92c3be"/><path d="M820 486a6 6 0 0 1 6-6h148a6 6 0 0 1 6 6v148a6 6 0 0 1-6 6H826a6 6 0 0 1-6-6z" stroke="#d7987d" stroke-width="2" fill="#f9ded4"/><use xlink:href="#g" transform="matrix(1,0,0,1,825,485) translate(23.271604938271608 78.71527777777777)"/><path d="M740.02 442l.18 8.35.57 9.08.9 8.66 1.2 8.13 1.46 7.56 1.63 6.95 1.8 6.38 1.9 5.82 1.97 5.3 2.03 4.85 2.08 4.4 2.1 4 2.13 3.68 2.13 3.35 2.14 3.07 2.15 2.8 2.14 2.6 2.15 2.38 2.15 2.2 2.16 2.02 2.18 1.86 2.2 1.73 2.2 1.58 2.22 1.47 2.25 1.35 2.3 1.25 2.3 1.14 2.38 1.04 2.42.94 2.47.85 2.54.76.24.05" stroke="#92c3be" stroke-width="2" stroke-linejoin="round" fill="none"/><path d="M741.02 442l-2 .05L739 441h2z" stroke="#92c3be" stroke-width=".05" fill="#92c3be"/><path d="M815.8 559.6l-14.75 2.77 1.18-9.2z" stroke="#92c3be" stroke-width="2" fill="#92c3be"/><path d="M1059.98 442l-.18 8.35-.57 9.08-.9 8.66-1.2 8.13-1.46 7.56-1.63 6.95-1.8 6.38-1.9 5.82-1.97 5.3-2.03 4.85-2.08 4.4-2.1 4-2.13 3.68-2.13 3.35-2.14 3.07-2.15 2.8-2.14 2.6-2.15 2.38-2.15 2.2-2.16 2.02-2.18 1.86-2.2 1.73-2.2 1.58-2.22 1.47-2.25 1.35-2.3 1.25-2.3 1.14-2.38 1.04-2.42.94-2.47.85-2.54.76-.24.05" stroke="#92c3be" stroke-width="2" stroke-linejoin="round" fill="none"/><path d="M1060.98 442.05l-2-.04.02-1h2z" stroke="#92c3be" stroke-width=".05" fill="#92c3be"/><path d="M984.2 559.6l13.57-6.43 1.18 9.2z" stroke="#92c3be" stroke-width="2" fill="#92c3be"/><path d="M978 360H839.5" stroke="#92c3be" stroke-width="2" stroke-linejoin="round" fill="none"/><path d="M979 361h-1.03v-2H979z" stroke="#92c3be" stroke-width=".05" fill="#92c3be"/><path d="M824.24 360l14.26-4.63v9.26z" stroke="#92c3be" stroke-width="2" fill="#92c3be"/><path d="M822 360h138.5" stroke="#92c3be" stroke-width="2" stroke-linejoin="round" fill="none"/><path d="M822.03 361H821v-2h1.03z" stroke="#92c3be" stroke-width=".05" fill="#92c3be"/><path d="M975.76 360l-14.26 4.63v-9.26z" stroke="#92c3be" stroke-width="2" fill="#92c3be"/><defs><path fill="#2d6b75" d="M143 4C61 4 22-44 18-125c-5-107 100-154 193-111 17 8 29 25 37 43l-32 9c-13-25-37-40-76-40-61 0-88 39-88 99 0 61 29 100 91 101 35 0 62-11 79-27v-45h-74v-28h105v86C228-13 192 4 143 4" id="h"/><path fill="#2d6b75" d="M232-93c-1 65-40 97-104 97C67 4 28-28 28-90v-158h33c8 89-33 224 67 224 102 0 64-133 71-224h33v155" id="i"/><path fill="#2d6b75" d="M33 0v-248h34V0H33" id="j"/><g id="a"><use transform="matrix(0.06172839506172839,0,0,0.06172839506172839,0,0)" xlink:href="#h"/><use transform="matrix(0.06172839506172839,0,0,0.06172839506172839,17.28395061728395,0)" xlink:href="#i"/><use transform="matrix(0.06172839506172839,0,0,0.06172839506172839,33.2716049382716,0)" xlink:href="#j"/></g><path fill="#2d6b75" d="M205 0l-28-72H64L36 0H1l101-248h38L239 0h-34zm-38-99l-47-123c-12 45-31 82-46 123h93" id="k"/><path fill="#2d6b75" d="M30-248c87 1 191-15 191 75 0 78-77 80-158 76V0H30v-248zm33 125c57 0 124 11 124-50 0-59-68-47-124-48v98" id="l"/><path fill="#2d6b75" d="M0 4l72-265h28L28 4H0" id="m"/><path fill="#2d6b75" d="M212-179c-10-28-35-45-73-45-59 0-87 40-87 99 0 60 29 101 89 101 43 0 62-24 78-52l27 14C228-24 195 4 139 4 59 4 22-46 18-125c-6-104 99-153 187-111 19 9 31 26 39 46" id="n"/><path fill="#2d6b75" d="M30 0v-248h33v221h125V0H30" id="o"/><g id="b"><use transform="matrix(0.06172839506172839,0,0,0.06172839506172839,0,0)" xlink:href="#k"/><use transform="matrix(0.06172839506172839,0,0,0.06172839506172839,14.814814814814813,0)" xlink:href="#l"/><use transform="matrix(0.06172839506172839,0,0,0.06172839506172839,29.629629629629626,0)" xlink:href="#j"/><use transform="matrix(0.06172839506172839,0,0,0.06172839506172839,35.80246913580247,0)" xlink:href="#m"/><use transform="matrix(0.06172839506172839,0,0,0.06172839506172839,41.97530864197531,0)" xlink:href="#n"/><use transform="matrix(0.06172839506172839,0,0,0.06172839506172839,57.96296296296296,0)" xlink:href="#o"/><use transform="matrix(0.06172839506172839,0,0,0.06172839506172839,70.30864197530865,0)" xlink:href="#j"/></g><path fill="#2d6b75" d="M84 4C-5 8 30-112 23-190h32v120c0 31 7 50 39 49 72-2 45-101 50-169h31l1 190h-30c-1-10 1-25-2-33-11 22-28 36-60 37" id="p"/><path fill="#2d6b75" d="M135-143c-3-34-86-38-87 0 15 53 115 12 119 90S17 21 10-45l28-5c4 36 97 45 98 0-10-56-113-15-118-90-4-57 82-63 122-42 12 7 21 19 24 35" id="q"/><path fill="#2d6b75" d="M59-47c-2 24 18 29 38 22v24C64 9 27 4 27-40v-127H5v-23h24l9-43h21v43h35v23H59v120" id="r"/><path fill="#2d6b75" d="M100-194c62-1 85 37 85 99 1 63-27 99-86 99S16-35 15-95c0-66 28-99 85-99zM99-20c44 1 53-31 53-75 0-43-8-75-51-75s-53 32-53 75 10 74 51 75" id="s"/><path fill="#2d6b75" d="M210-169c-67 3-38 105-44 169h-31v-121c0-29-5-50-35-48C34-165 62-65 56 0H25l-1-190h30c1 10-1 24 2 32 10-44 99-50 107 0 11-21 27-35 58-36 85-2 47 119 55 194h-31v-121c0-29-5-49-35-48" id="t"/><g id="c"><use transform="matrix(0.06172839506172839,0,0,0.06172839506172839,0,0)" xlink:href="#n"/><use transform="matrix(0.06172839506172839,0,0,0.06172839506172839,15.987654320987653,0)" xlink:href="#p"/><use transform="matrix(0.06172839506172839,0,0,0.06172839506172839,28.333333333333332,0)" xlink:href="#q"/><use transform="matrix(0.06172839506172839,0,0,0.06172839506172839,39.44444444444444,0)" xlink:href="#r"/><use transform="matrix(0.06172839506172839,0,0,0.06172839506172839,45.617283950617285,0)" xlink:href="#s"/><use transform="matrix(0.06172839506172839,0,0,0.06172839506172839,57.96296296296296,0)" xlink:href="#t"/></g><path fill="#2d6b75" d="M114-163C36-179 61-72 57 0H25l-1-190h30c1 12-1 29 2 39 6-27 23-49 58-41v29" id="u"/><path fill="#2d6b75" d="M100-194c63 0 86 42 84 106H49c0 40 14 67 53 68 26 1 43-12 49-29l28 8c-11 28-37 45-77 45C44 4 14-33 15-96c1-61 26-98 85-98zm52 81c6-60-76-77-97-28-3 7-6 17-6 28h103" id="v"/><path fill="#2d6b75" d="M115-194c55 1 70 41 70 98S169 2 115 4C84 4 66-9 55-30l1 105H24l-1-265h31l2 30c10-21 28-34 59-34zm-8 174c40 0 45-34 45-75s-6-73-45-74c-42 0-51 32-51 76 0 43 10 73 51 73" id="w"/><path fill="#2d6b75" d="M96-169c-40 0-48 33-48 73s9 75 48 75c24 0 41-14 43-38l32 2c-6 37-31 61-74 61-59 0-76-41-82-99-10-93 101-131 147-64 4 7 5 14 7 22l-32 3c-4-21-16-35-41-35" id="x"/><path fill="#2d6b75" d="M24-231v-30h32v30H24zM24 0v-190h32V0H24" id="y"/><path fill="#2d6b75" d="M117-194c89-4 53 116 60 194h-32v-121c0-31-8-49-39-48C34-167 62-67 57 0H25l-1-190h30c1 10-1 24 2 32 11-22 29-35 61-36" id="z"/><path fill="#2d6b75" d="M177-190C167-65 218 103 67 71c-23-6-38-20-44-43l32-5c15 47 100 32 89-28v-30C133-14 115 1 83 1 29 1 15-40 15-95c0-56 16-97 71-98 29-1 48 16 59 35 1-10 0-23 2-32h30zM94-22c36 0 50-32 50-73 0-42-14-75-50-75-39 0-46 34-46 75s6 73 46 73" id="A"/><g id="d"><use transform="matrix(0.06172839506172839,0,0,0.06172839506172839,0,0)" xlink:href="#l"/><use transform="matrix(0.06172839506172839,0,0,0.06172839506172839,14.814814814814813,0)" xlink:href="#u"/><use transform="matrix(0.06172839506172839,0,0,0.06172839506172839,22.160493827160494,0)" xlink:href="#v"/><use transform="matrix(0.06172839506172839,0,0,0.06172839506172839,34.50617283950617,0)" xlink:href="#w"/><use transform="matrix(0.06172839506172839,0,0,0.06172839506172839,46.85185185185185,0)" xlink:href="#u"/><use transform="matrix(0.06172839506172839,0,0,0.06172839506172839,54.197530864197525,0)" xlink:href="#s"/><use transform="matrix(0.06172839506172839,0,0,0.06172839506172839,66.5432098765432,0)" xlink:href="#x"/><use transform="matrix(0.06172839506172839,0,0,0.06172839506172839,77.65432098765432,0)" xlink:href="#v"/><use transform="matrix(0.06172839506172839,0,0,0.06172839506172839,90,0)" xlink:href="#q"/><use transform="matrix(0.06172839506172839,0,0,0.06172839506172839,101.11111111111111,0)" xlink:href="#q"/><use transform="matrix(0.06172839506172839,0,0,0.06172839506172839,112.22222222222223,0)" xlink:href="#y"/><use transform="matrix(0.06172839506172839,0,0,0.06172839506172839,117.09876543209877,0)" xlink:href="#z"/><use transform="matrix(0.06172839506172839,0,0,0.06172839506172839,129.44444444444446,0)" xlink:href="#A"/></g><path fill="#2d6b75" d="M153-248C145-148 188 4 80 4 36 3 13-21 6-62l32-5c4 25 16 42 43 43 27 0 39-20 39-49v-147H72v-28h81" id="B"/><path fill="#2d6b75" d="M185-189c-5-48-123-54-124 2 14 75 158 14 163 119 3 78-121 87-175 55-17-10-28-26-33-46l33-7c5 56 141 63 141-1 0-78-155-14-162-118-5-82 145-84 179-34 5 7 8 16 11 25" id="C"/><path fill="#2d6b75" d="M140-251c81 0 123 46 123 126C263-46 219 4 140 4 59 4 17-45 17-125s42-126 123-126zm0 227c63 0 89-41 89-101s-29-99-89-99c-61 0-89 39-89 99S79-25 140-24" id="D"/><path fill="#2d6b75" d="M190 0L58-211 59 0H30v-248h39L202-35l-2-213h31V0h-41" id="E"/><g id="e"><use transform="matrix(0.06172839506172839,0,0,0.06172839506172839,0,0)" xlink:href="#B"/><use transform="matrix(0.06172839506172839,0,0,0.06172839506172839,11.11111111111111,0)" xlink:href="#C"/><use transform="matrix(0.06172839506172839,0,0,0.06172839506172839,25.925925925925924,0)" xlink:href="#D"/><use transform="matrix(0.06172839506172839,0,0,0.06172839506172839,43.20987654320987,0)" xlink:href="#E"/></g><path fill="#2d6b75" d="M101-234c-31-9-42 10-38 44h38v23H63V0H32v-167H5v-23h27c-7-52 17-82 69-68v24" id="F"/><g id="f"><use transform="matrix(0.06172839506172839,0,0,0.06172839506172839,0,0)" xlink:href="#n"/><use transform="matrix(0.06172839506172839,0,0,0.06172839506172839,15.987654320987653,0)" xlink:href="#s"/><use transform="matrix(0.06172839506172839,0,0,0.06172839506172839,28.333333333333332,0)" xlink:href="#z"/><use transform="matrix(0.06172839506172839,0,0,0.06172839506172839,40.67901234567901,0)" xlink:href="#F"/><use transform="matrix(0.06172839506172839,0,0,0.06172839506172839,46.851851851851855,0)" xlink:href="#y"/><use transform="matrix(0.06172839506172839,0,0,0.06172839506172839,51.7283950617284,0)" xlink:href="#A"/></g><path fill="#2d6b75" d="M24 0v-261h32V0H24" id="G"/><path fill="#2d6b75" d="M141-36C126-15 110 5 73 4 37 3 15-17 15-53c-1-64 63-63 125-63 3-35-9-54-41-54-24 1-41 7-42 31l-33-3c5-37 33-52 76-52 45 0 72 20 72 64v82c-1 20 7 32 28 27v20c-31 9-61-2-59-35zM48-53c0 20 12 33 32 33 41-3 63-29 60-74-43 2-92-5-92 41" id="H"/><g id="g"><use transform="matrix(0.06172839506172839,0,0,0.06172839506172839,0,0)" xlink:href="#C"/><use transform="matrix(0.06172839506172839,0,0,0.06172839506172839,14.814814814814813,0)" xlink:href="#y"/><use transform="matrix(0.06172839506172839,0,0,0.06172839506172839,19.691358024691354,0)" xlink:href="#t"/><use transform="matrix(0.06172839506172839,0,0,0.06172839506172839,38.14814814814814,0)" xlink:href="#p"/><use transform="matrix(0.06172839506172839,0,0,0.06172839506172839,50.493827160493815,0)" xlink:href="#G"/><use transform="matrix(0.06172839506172839,0,0,0.06172839506172839,55.37037037037036,0)" xlink:href="#H"/><use transform="matrix(0.06172839506172839,0,0,0.06172839506172839,67.71604938271604,0)" xlink:href="#r"/><use transform="matrix(0.06172839506172839,0,0,0.06172839506172839,73.88888888888887,0)" xlink:href="#y"/><use transform="matrix(0.06172839506172839,0,0,0.06172839506172839,78.76543209876542,0)" xlink:href="#s"/><use transform="matrix(0.06172839506172839,0,0,0.06172839506172839,91.1111111111111,0)" xlink:href="#z"/></g></defs></g></svg>